<svg width="413" height="303" viewBox="0 0 413 303" fill="none" xmlns="http://www.w3.org/2000/svg">
<g filter="url(#filter0_bii_2387_16)">
<rect x="68" width="300" height="250" rx="45" fill="white" fill-opacity="0.01"/>
</g>
<g filter="url(#filter1_f_2387_16)">
<path d="M202.19 182C123.619 182 121.098 209.967 76 227H206H336C282.667 182 280.762 182 202.191 182H202.19Z" fill="url(#paint0_linear_2387_16)"/>
<path d="M202.19 182C123.619 182 121.098 209.967 76 227H206H336C282.667 182 280.762 182 202.191 182H202.19Z" stroke="black"/>
</g>
<g clip-path="url(#clip0_2387_16)">
<path d="M111.676 88.2126C109.229 84.9902 107.122 81.7175 106.691 81.0378C106.646 80.9874 106.578 80.9874 106.533 81.0378C106.102 81.7175 103.995 84.9902 101.548 88.2126C80.5449 117.944 104.856 138.009 104.856 138.009L105.06 138.16C105.241 141.256 105.694 145.712 105.694 145.712H106.601H107.507C107.507 145.712 107.96 141.281 108.141 138.16L108.345 137.984C108.368 138.009 132.679 117.944 111.676 88.2126ZM106.601 137.555C106.601 137.555 105.513 136.523 105.219 135.995V135.944L106.533 103.569C106.533 103.469 106.669 103.469 106.669 103.569L107.983 135.944V135.995C107.688 136.523 106.601 137.555 106.601 137.555Z" fill="#001E2B"/>
<path d="M152.097 130.949L141.967 103.486L141.944 103.41H134.062V105.256H135.334C135.72 105.256 136.084 105.433 136.356 105.737C136.629 106.04 136.765 106.445 136.765 106.875L136.538 134.515C136.538 135.374 135.902 136.082 135.13 136.108L133.835 136.133V137.954H141.513V136.133L140.717 136.108C139.945 136.082 139.309 135.374 139.309 134.515V108.468L150.349 137.954C150.507 138.384 150.871 138.662 151.28 138.662C151.689 138.662 152.052 138.384 152.211 137.954L163.001 109.125L163.16 134.515C163.16 135.4 162.523 136.108 161.729 136.133H160.911V137.954H169.906V136.133H168.679C167.907 136.133 167.271 135.4 167.248 134.54L167.18 106.9C167.18 106.015 167.816 105.307 168.588 105.281L169.906 105.256V103.41H162.228L152.097 130.949Z" fill="#001E2B"/>
<path d="M222.734 135.652C222.484 135.373 222.347 134.993 222.347 134.537V120.959C222.347 118.376 221.664 116.349 220.297 114.905C218.954 113.461 217.086 112.727 214.763 112.727C211.507 112.727 208.933 114.196 207.134 117.084C207.111 117.134 207.043 117.16 206.975 117.16C206.906 117.16 206.861 117.109 206.861 117.033L206.018 113.41H204.606L200.985 115.716V116.982H201.919C202.352 116.982 202.716 117.109 202.967 117.362C203.217 117.616 203.354 117.996 203.354 118.527V134.512C203.354 134.968 203.217 135.348 202.967 135.627C202.716 135.905 202.375 136.057 201.965 136.057H201.054V137.906H209.389V136.057H208.478C208.068 136.057 207.726 135.905 207.476 135.627C207.225 135.348 207.089 134.968 207.089 134.512V123.923C207.089 122.581 207.362 121.238 207.863 119.921C208.387 118.629 209.161 117.54 210.186 116.704C211.211 115.868 212.44 115.462 213.852 115.462C215.447 115.462 216.654 116.02 217.405 117.134C218.157 118.249 218.544 119.693 218.544 121.415V134.487C218.544 134.942 218.407 135.322 218.157 135.601C217.906 135.88 217.565 136.032 217.155 136.032H216.244V137.881H224.579V136.032H223.668C223.326 136.083 223.007 135.931 222.734 135.652Z" fill="#001E2B"/>
<path d="M298.886 105.478C296.582 104.116 294.007 103.41 291.229 103.41H280.387V105.251H281.448C281.855 105.251 282.216 105.427 282.578 105.831C282.917 106.209 283.097 106.638 283.097 107.092V134.225C283.097 134.679 282.917 135.107 282.578 135.486C282.239 135.864 281.855 136.066 281.448 136.066H280.387V137.906H291.229C294.007 137.906 296.582 137.2 298.886 135.839C301.19 134.477 303.065 132.46 304.42 129.888C305.776 127.316 306.476 124.214 306.476 120.683C306.476 117.153 305.776 114.077 304.42 111.479C303.042 108.857 301.19 106.865 298.886 105.478ZM302.116 120.633C302.116 123.861 301.597 126.584 300.58 128.778C299.564 130.972 298.208 132.611 296.537 133.67C294.866 134.729 293.013 135.259 291.026 135.259H288.835C288.428 135.259 288.067 135.082 287.705 134.679C287.366 134.3 287.186 133.872 287.186 133.418V107.823C287.186 107.369 287.344 106.966 287.705 106.562C288.044 106.184 288.428 105.982 288.835 105.982H291.026C293.013 105.982 294.866 106.512 296.537 107.571C298.208 108.63 299.564 110.269 300.58 112.463C301.597 114.682 302.116 117.43 302.116 120.633Z" fill="#001E2B"/>
<path d="M332.104 122.474C331.101 121.188 329.166 120.104 326.891 119.523C330.033 117.783 331.648 115.337 331.648 112.185C331.648 110.471 331.24 108.932 330.418 107.621C329.599 106.31 328.438 105.251 326.959 104.52C325.477 103.788 323.746 103.41 321.789 103.41H309.516V105.251H310.495C310.905 105.251 311.269 105.427 311.634 105.831C311.975 106.209 312.157 106.638 312.157 107.092V134.225C312.157 134.679 311.975 135.107 311.634 135.486C311.292 135.864 310.905 136.066 310.495 136.066H309.425V137.906H322.746C324.772 137.906 326.662 137.528 328.37 136.772C330.078 136.015 331.444 134.906 332.424 133.443C333.424 131.981 333.926 130.19 333.926 128.122C333.903 125.903 333.311 124.012 332.104 122.474ZM316.825 134.704C316.484 134.326 316.301 133.897 316.301 133.443V121.263H322.633C324.863 121.263 326.571 121.894 327.755 123.155C328.939 124.416 329.531 126.055 329.531 128.072C329.531 129.282 329.257 130.468 328.758 131.552C328.234 132.661 327.458 133.544 326.412 134.225C325.387 134.906 324.112 135.259 322.633 135.259H317.964C317.554 135.259 317.19 135.082 316.825 134.704ZM316.324 118.666V107.848C316.324 107.394 316.484 106.991 316.848 106.587C317.19 106.209 317.577 106.007 317.987 106.007H320.992C323.154 106.007 324.749 106.613 325.752 107.772C326.752 108.958 327.254 110.471 327.254 112.337C327.254 114.253 326.775 115.791 325.843 116.951C324.908 118.086 323.497 118.666 321.63 118.666H316.324Z" fill="#001E2B"/>
<path d="M191.004 114.335C189.264 113.28 187.321 112.727 185.219 112.727C183.118 112.727 181.152 113.254 179.434 114.335C177.694 115.39 176.316 116.923 175.299 118.858C174.282 120.793 173.763 123.055 173.763 125.568C173.763 128.081 174.282 130.343 175.299 132.278C176.316 134.213 177.694 135.746 179.434 136.802C181.174 137.857 183.118 138.41 185.219 138.41C187.321 138.41 189.287 137.882 191.004 136.802C192.744 135.746 194.122 134.213 195.139 132.278C196.156 130.343 196.676 128.081 196.676 125.568C196.676 123.055 196.156 120.793 195.139 118.858C194.122 116.923 192.744 115.39 191.004 114.335ZM192.676 125.568C192.676 128.659 191.998 131.172 190.642 132.982C189.309 134.791 187.479 135.721 185.219 135.721C182.96 135.721 181.129 134.791 179.796 132.982C178.44 131.172 177.762 128.659 177.762 125.568C177.762 122.477 178.44 119.964 179.796 118.155C181.129 116.345 182.96 115.416 185.219 115.416C187.479 115.416 189.309 116.345 190.642 118.155C191.998 119.964 192.676 122.477 192.676 125.568Z" fill="#001E2B"/>
<path d="M271.085 114.335C269.345 113.28 267.402 112.727 265.3 112.727C263.199 112.727 261.233 113.254 259.515 114.335C257.775 115.39 256.397 116.923 255.38 118.858C254.363 120.793 253.844 123.055 253.844 125.568C253.844 128.081 254.363 130.343 255.38 132.278C256.397 134.213 257.775 135.746 259.515 136.802C261.255 137.857 263.199 138.41 265.3 138.41C267.402 138.41 269.368 137.882 271.085 136.802C272.825 135.746 274.203 134.213 275.22 132.278C276.237 130.343 276.757 128.081 276.757 125.568C276.757 123.055 276.237 120.793 275.22 118.858C274.203 116.923 272.802 115.39 271.085 114.335ZM272.757 125.568C272.757 128.659 272.079 131.172 270.723 132.982C269.39 134.791 267.56 135.721 265.3 135.721C263.04 135.721 261.21 134.791 259.877 132.982C258.521 131.172 257.843 128.659 257.843 125.568C257.843 122.452 258.521 119.964 259.877 118.155C261.21 116.345 263.04 115.416 265.3 115.416C267.56 115.416 269.39 116.345 270.723 118.155C272.057 119.964 272.757 122.477 272.757 125.568Z" fill="#001E2B"/>
<path d="M238.789 112.727C236.968 112.727 235.307 113.156 233.805 114.014C232.303 114.872 231.12 116.034 230.278 117.523C229.436 118.988 229.004 120.629 229.004 122.371C229.004 123.936 229.322 125.375 229.982 126.663C230.619 127.9 231.484 128.935 232.576 129.793L229.322 134.691C228.912 135.297 228.867 136.105 229.163 136.761C229.481 137.443 230.073 137.847 230.756 137.847H231.689C230.778 138.528 230.05 139.336 229.55 140.295C228.958 141.381 228.662 142.517 228.662 143.678C228.662 145.85 229.527 147.642 231.234 148.98C232.918 150.318 235.284 151 238.266 151C240.337 151 242.316 150.621 244.114 149.889C245.935 149.157 247.414 148.071 248.506 146.658C249.622 145.244 250.19 143.527 250.19 141.558C250.19 139.488 249.508 138.023 247.915 136.61C246.549 135.423 244.41 134.792 241.747 134.792H232.645C232.622 134.792 232.599 134.766 232.599 134.766C232.599 134.766 232.576 134.716 232.599 134.691L234.966 131.156C235.603 131.485 236.195 131.686 236.718 131.813C237.264 131.939 237.879 131.989 238.561 131.989C240.473 131.989 242.203 131.56 243.705 130.702C245.207 129.844 246.413 128.682 247.278 127.193C248.142 125.728 248.575 124.087 248.575 122.346C248.575 120.477 247.755 117.069 245.525 115.327C245.525 115.302 245.548 115.302 245.548 115.302L250.441 115.908V113.408H242.612C241.383 112.979 240.109 112.727 238.789 112.727ZM241.52 128.531C240.655 129.036 239.722 129.313 238.789 129.313C237.264 129.313 235.922 128.707 234.784 127.521C233.646 126.334 233.077 124.592 233.077 122.371C233.077 120.149 233.646 118.407 234.784 117.22C235.922 116.034 237.264 115.428 238.789 115.428C239.745 115.428 240.655 115.68 241.52 116.21C242.385 116.716 243.09 117.498 243.659 118.533C244.205 119.568 244.501 120.856 244.501 122.371C244.501 123.911 244.228 125.198 243.659 126.208C243.113 127.243 242.385 128.026 241.52 128.531ZM235.353 137.821H241.52C243.227 137.821 244.319 138.2 245.047 139.008C245.776 139.816 246.14 140.901 246.14 142.164C246.14 144.007 245.48 145.522 244.16 146.658C242.84 147.794 241.065 148.374 238.88 148.374C236.968 148.374 235.375 147.895 234.215 146.986C233.054 146.077 232.462 144.688 232.462 142.921C232.462 141.81 232.736 140.775 233.282 139.866C233.828 138.957 234.488 138.301 235.353 137.821Z" fill="#001E2B"/>
<path d="M338.542 137.485C338.093 137.213 337.755 136.816 337.485 136.345C337.238 135.85 337.102 135.329 337.102 134.759C337.102 134.189 337.238 133.644 337.485 133.173C337.732 132.677 338.093 132.306 338.542 132.033C338.994 131.76 339.488 131.612 340.051 131.612C340.613 131.612 341.108 131.76 341.559 132.033C342.009 132.306 342.347 132.702 342.617 133.173C342.864 133.669 343 134.189 343 134.759C343 135.329 342.864 135.874 342.617 136.345C342.369 136.841 342.009 137.213 341.559 137.485C341.108 137.758 340.613 137.907 340.051 137.907C339.511 137.907 338.994 137.783 338.542 137.485ZM341.312 137.138C341.693 136.915 341.965 136.568 342.19 136.172C342.392 135.75 342.505 135.28 342.505 134.759C342.505 134.239 342.392 133.768 342.19 133.346C341.986 132.925 341.693 132.603 341.312 132.38C340.929 132.157 340.523 132.033 340.051 132.033C339.579 132.033 339.173 132.157 338.789 132.38C338.408 132.603 338.136 132.95 337.911 133.346C337.71 133.768 337.596 134.239 337.596 134.759C337.596 135.28 337.71 135.75 337.911 136.172C338.116 136.593 338.408 136.915 338.789 137.138C339.173 137.361 339.579 137.485 340.051 137.485C340.523 137.485 340.951 137.361 341.312 137.138ZM338.835 136.271V136.048L338.88 136.023H339.016C339.059 136.023 339.105 135.998 339.127 135.973C339.173 135.924 339.173 135.899 339.173 135.85V133.545C339.173 133.495 339.15 133.446 339.127 133.421C339.082 133.371 339.059 133.371 339.016 133.371H338.88L338.835 133.346V133.123L338.88 133.099H340.051C340.389 133.099 340.636 133.173 340.838 133.346C341.042 133.52 341.131 133.743 341.131 134.04C341.131 134.264 341.065 134.486 340.906 134.635C340.749 134.809 340.568 134.908 340.343 134.933L340.613 135.032L341.131 135.949C341.176 136.023 341.221 136.048 341.289 136.048H341.423L341.446 136.073V136.296L341.423 136.32H340.727L340.681 136.296L339.96 134.957H339.781V135.85C339.781 135.899 339.803 135.949 339.826 135.973C339.872 136.023 339.894 136.023 339.937 136.023H340.073L340.119 136.048V136.271L340.073 136.296H338.88L338.835 136.271ZM339.983 134.635C340.164 134.635 340.321 134.586 340.411 134.462C340.5 134.362 340.568 134.189 340.568 133.991C340.568 133.792 340.523 133.644 340.434 133.52C340.343 133.396 340.207 133.346 340.051 133.346H339.96C339.915 133.346 339.872 133.371 339.849 133.396C339.803 133.445 339.803 133.47 339.803 133.52V134.635H339.983Z" fill="#001E2B"/>
</g>
<defs>
<filter id="filter0_bii_2387_16" x="43" y="-25" width="350" height="300" filterUnits="userSpaceOnUse" color-interpolation-filters="sRGB">
<feFlood flood-opacity="0" result="BackgroundImageFix"/>
<feGaussianBlur in="BackgroundImageFix" stdDeviation="12.5"/>
<feComposite in2="SourceAlpha" operator="in" result="effect1_backgroundBlur_2387_16"/>
<feBlend mode="normal" in="SourceGraphic" in2="effect1_backgroundBlur_2387_16" result="shape"/>
<feColorMatrix in="SourceAlpha" type="matrix" values="0 0 0 0 0 0 0 0 0 0 0 0 0 0 0 0 0 0 127 0" result="hardAlpha"/>
<feOffset dx="10" dy="10"/>
<feGaussianBlur stdDeviation="12.5"/>
<feComposite in2="hardAlpha" operator="arithmetic" k2="-1" k3="1"/>
<feColorMatrix type="matrix" values="0 0 0 0 1 0 0 0 0 1 0 0 0 0 1 0 0 0 0.1 0"/>
<feBlend mode="normal" in2="shape" result="effect2_innerShadow_2387_16"/>
<feColorMatrix in="SourceAlpha" type="matrix" values="0 0 0 0 0 0 0 0 0 0 0 0 0 0 0 0 0 0 127 0" result="hardAlpha"/>
<feOffset dy="-10"/>
<feGaussianBlur stdDeviation="12.5"/>
<feComposite in2="hardAlpha" operator="arithmetic" k2="-1" k3="1"/>
<feColorMatrix type="matrix" values="0 0 0 0 0.407535 0 0 0 0 0.440457 0 0 0 0 0.504167 0 0 0 0.25 0"/>
<feBlend mode="normal" in2="effect2_innerShadow_2387_16" result="effect3_innerShadow_2387_16"/>
</filter>
<filter id="filter1_f_2387_16" x="0.823242" y="106.5" width="411.545" height="196" filterUnits="userSpaceOnUse" color-interpolation-filters="sRGB">
<feFlood flood-opacity="0" result="BackgroundImageFix"/>
<feBlend mode="normal" in="SourceGraphic" in2="BackgroundImageFix" result="shape"/>
<feGaussianBlur stdDeviation="37.5" result="effect1_foregroundBlur_2387_16"/>
</filter>
<linearGradient id="paint0_linear_2387_16" x1="206" y1="182" x2="206" y2="227" gradientUnits="userSpaceOnUse">
<stop stop-color="#9E9E9E"/>
<stop offset="1" stop-color="#6E7789"/>
</linearGradient>
<clipPath id="clip0_2387_16">
<rect width="250" height="70" fill="white" transform="translate(93 81)"/>
</clipPath>
</defs>
</svg>
