<svg width="413" height="303" viewBox="0 0 413 303" fill="none" xmlns="http://www.w3.org/2000/svg">
<g filter="url(#filter0_bii_2387_17)">
<rect x="56" width="300" height="250" rx="45" fill="white" fill-opacity="0.01"/>
</g>
<g filter="url(#filter1_f_2387_17)">
<path d="M202.19 182C123.619 182 121.098 209.967 76 227H206H336C282.667 182 280.762 182 202.191 182H202.19Z" fill="url(#paint0_linear_2387_17)"/>
<path d="M202.19 182C123.619 182 121.098 209.967 76 227H206H336C282.667 182 280.762 182 202.191 182H202.19Z" stroke="black"/>
</g>
<path d="M204.871 185.974C204.194 185.974 203.562 185.794 202.975 185.478L196.971 181.911C196.068 181.415 196.519 181.234 196.79 181.144C198.009 180.737 198.235 180.647 199.499 179.925C199.634 179.834 199.815 179.88 199.95 179.97L204.555 182.724C204.736 182.814 204.962 182.814 205.097 182.724L223.111 172.295C223.291 172.205 223.381 172.024 223.381 171.798V150.986C223.381 150.76 223.291 150.579 223.111 150.489L205.097 140.105C204.916 140.015 204.691 140.015 204.555 140.105L186.542 150.489C186.361 150.579 186.271 150.805 186.271 150.986V171.798C186.271 171.979 186.361 172.205 186.542 172.295L191.463 175.139C194.126 176.494 195.797 174.913 195.797 173.333V152.792C195.797 152.521 196.023 152.25 196.339 152.25H198.641C198.912 152.25 199.183 152.475 199.183 152.792V173.333C199.183 176.9 197.242 178.977 193.855 178.977C192.817 178.977 192.004 178.977 189.702 177.848L184.962 175.139C183.788 174.462 183.065 173.198 183.065 171.843V151.031C183.065 149.676 183.788 148.412 184.962 147.735L202.975 137.306C204.104 136.674 205.639 136.674 206.767 137.306L224.781 147.735C225.955 148.412 226.677 149.676 226.677 151.031V171.843C226.677 173.198 225.955 174.462 224.781 175.139L206.767 185.568C206.181 185.839 205.503 185.974 204.871 185.974ZM210.424 171.663C202.524 171.663 200.898 168.051 200.898 164.981C200.898 164.71 201.124 164.439 201.44 164.439H203.788C204.059 164.439 204.284 164.62 204.284 164.891C204.646 167.284 205.684 168.457 210.469 168.457C214.262 168.457 215.887 167.6 215.887 165.568C215.887 164.394 215.436 163.536 209.521 162.95C204.6 162.453 201.53 161.369 201.53 157.442C201.53 153.785 204.6 151.618 209.747 151.618C215.526 151.618 218.37 153.604 218.731 157.938C218.731 158.074 218.686 158.209 218.596 158.345C218.506 158.435 218.37 158.525 218.235 158.525H215.887C215.661 158.525 215.436 158.345 215.39 158.119C214.849 155.636 213.449 154.823 209.747 154.823C205.594 154.823 205.097 156.268 205.097 157.351C205.097 158.661 205.684 159.067 211.282 159.789C216.835 160.512 219.454 161.55 219.454 165.433C219.409 169.406 216.158 171.663 210.424 171.663Z" fill="#539E43"/>
<path d="M148.979 104.575C148.979 103.762 148.528 102.995 147.805 102.588L128.663 91.5725C128.347 91.3919 127.986 91.3016 127.625 91.2565H127.444C127.083 91.2565 126.722 91.3919 126.406 91.5725L107.264 102.588C106.541 102.995 106.09 103.762 106.09 104.575L106.135 134.191C106.135 134.597 106.361 135.004 106.722 135.184C107.083 135.41 107.535 135.41 107.851 135.184L119.228 128.683C119.95 128.277 120.401 127.509 120.401 126.697V112.837C120.401 112.024 120.853 111.256 121.575 110.85L126.406 108.051C126.767 107.825 127.173 107.735 127.58 107.735C127.986 107.735 128.392 107.825 128.708 108.051L133.539 110.85C134.261 111.256 134.713 112.024 134.713 112.837V126.697C134.713 127.509 135.164 128.277 135.887 128.683L147.264 135.184C147.625 135.41 148.076 135.41 148.437 135.184C148.799 135.004 149.024 134.597 149.024 134.191L148.979 104.575Z" fill="#333333"/>
<path d="M240.988 63.8073C240.627 63.6267 240.175 63.6267 239.859 63.8073C239.498 64.033 239.272 64.3942 239.272 64.8005V94.1459C239.272 94.4168 239.137 94.6877 238.866 94.8683C238.595 95.0037 238.324 95.0037 238.053 94.8683L233.268 92.1143C232.546 91.708 231.688 91.708 230.965 92.1143L211.823 103.175C211.101 103.582 210.649 104.349 210.649 105.162V127.238C210.649 128.051 211.101 128.819 211.823 129.225L230.965 140.286C231.688 140.692 232.546 140.692 233.268 140.286L252.41 129.225C253.132 128.819 253.584 128.051 253.584 127.238V72.2046C253.584 71.3468 253.132 70.5793 252.41 70.173L240.988 63.8073ZM239.227 119.97C239.227 120.196 239.137 120.376 238.956 120.466L232.41 124.259C232.23 124.349 232.004 124.349 231.823 124.259L225.277 120.466C225.096 120.376 225.006 120.15 225.006 119.97V112.385C225.006 112.159 225.096 111.979 225.277 111.889L231.823 108.096C232.004 108.006 232.23 108.006 232.41 108.096L238.956 111.889C239.137 111.979 239.227 112.205 239.227 112.385V119.97Z" fill="#333333"/>
<path d="M304.691 112.205C305.413 111.798 305.819 111.031 305.819 110.218V104.846C305.819 104.033 305.368 103.266 304.691 102.859L285.684 91.8434C284.962 91.4371 284.104 91.4371 283.381 91.8434L264.239 102.904C263.517 103.311 263.065 104.078 263.065 104.891V126.968C263.065 127.78 263.517 128.548 264.239 128.954L283.246 139.789C283.968 140.196 284.826 140.196 285.503 139.789L297.016 133.378C297.377 133.198 297.603 132.792 297.603 132.385C297.603 131.979 297.377 131.573 297.016 131.392L277.783 120.331C277.422 120.105 277.196 119.744 277.196 119.338V112.43C277.196 112.024 277.422 111.618 277.783 111.437L283.788 108.006C284.149 107.78 284.6 107.78 284.962 108.006L290.966 111.437C291.327 111.663 291.553 112.024 291.553 112.43V117.848C291.553 118.254 291.779 118.661 292.14 118.841C292.501 119.067 292.953 119.067 293.314 118.841L304.691 112.205Z" fill="#333333"/>
<path d="M284.239 111.166C284.375 111.076 284.555 111.076 284.691 111.166L288.347 113.288C288.483 113.378 288.573 113.514 288.573 113.694V117.938C288.573 118.119 288.483 118.254 288.347 118.345L284.691 120.466C284.555 120.557 284.375 120.557 284.239 120.466L280.582 118.345C280.447 118.254 280.356 118.119 280.356 117.938V113.694C280.356 113.514 280.447 113.378 280.582 113.288L284.239 111.166Z" fill="#539E43"/>
<path d="M180.989 91.9338C180.266 91.5274 179.409 91.5274 178.686 91.9338L159.679 102.904C158.957 103.311 158.551 104.078 158.551 104.891V126.877C158.551 127.69 159.002 128.457 159.679 128.864L178.686 139.834C179.409 140.241 180.266 140.241 180.989 139.834L199.995 128.864C200.718 128.457 201.124 127.69 201.124 126.877V104.891C201.124 104.078 200.673 103.311 199.995 102.904L180.989 91.9338Z" fill="url(#paint1_linear_2387_17)"/>
<mask id="mask0_2387_17" style="mask-type:luminance" maskUnits="userSpaceOnUse" x="158" y="91" width="44" height="50">
<path d="M180.989 91.9338C180.266 91.5274 179.409 91.5274 178.686 91.9338L159.679 102.904C158.957 103.311 158.551 104.078 158.551 104.891V126.877C158.551 127.69 159.002 128.457 159.679 128.864L178.686 139.834C179.409 140.241 180.266 140.241 180.989 139.834L199.995 128.864C200.718 128.457 201.124 127.69 201.124 126.877V104.891C201.124 104.078 200.673 103.311 199.995 102.904L180.989 91.9338Z" fill="white"/>
</mask>
<g mask="url(#mask0_2387_17)">
<path d="M200.041 102.904L180.943 91.9337C180.763 91.8434 180.537 91.7532 180.357 91.708L158.957 128.367C159.138 128.593 159.363 128.773 159.589 128.909L178.686 139.88C179.228 140.196 179.86 140.286 180.447 140.105L200.537 103.356C200.402 103.175 200.221 103.04 200.041 102.904Z" fill="url(#paint2_linear_2387_17)"/>
</g>
<mask id="mask1_2387_17" style="mask-type:luminance" maskUnits="userSpaceOnUse" x="158" y="91" width="44" height="50">
<path d="M180.989 91.9338C180.266 91.5274 179.409 91.5274 178.686 91.9338L159.679 102.904C158.957 103.311 158.551 104.078 158.551 104.891V126.877C158.551 127.69 159.002 128.457 159.679 128.864L178.686 139.834C179.409 140.241 180.266 140.241 180.989 139.834L199.995 128.864C200.718 128.457 201.124 127.69 201.124 126.877V104.891C201.124 104.078 200.673 103.311 199.995 102.904L180.989 91.9338Z" fill="white"/>
</mask>
<g mask="url(#mask1_2387_17)">
<path fill-rule="evenodd" clip-rule="evenodd" d="M200.086 128.864C200.628 128.548 201.034 128.006 201.215 127.419L180.267 91.6629C179.725 91.5726 179.138 91.6178 178.641 91.9338L159.68 102.859L180.131 140.15C180.402 140.105 180.718 140.015 180.989 139.88L200.086 128.864Z" fill="url(#paint3_linear_2387_17)"/>
<path fill-rule="evenodd" clip-rule="evenodd" d="M200.085 128.864L181.034 139.835C180.763 139.97 180.492 140.06 180.176 140.105L180.537 140.783L201.666 128.548V128.277L201.124 127.374C201.034 128.006 200.627 128.548 200.085 128.864Z" fill="url(#paint4_linear_2387_17)"/>
<path fill-rule="evenodd" clip-rule="evenodd" d="M200.085 128.864L181.034 139.835C180.763 139.97 180.492 140.06 180.176 140.105L180.537 140.783L201.666 128.548V128.277L201.124 127.374C201.034 128.006 200.627 128.548 200.085 128.864Z" fill="url(#paint5_linear_2387_17)"/>
</g>
<defs>
<filter id="filter0_bii_2387_17" x="31" y="-25" width="350" height="300" filterUnits="userSpaceOnUse" color-interpolation-filters="sRGB">
<feFlood flood-opacity="0" result="BackgroundImageFix"/>
<feGaussianBlur in="BackgroundImageFix" stdDeviation="12.5"/>
<feComposite in2="SourceAlpha" operator="in" result="effect1_backgroundBlur_2387_17"/>
<feBlend mode="normal" in="SourceGraphic" in2="effect1_backgroundBlur_2387_17" result="shape"/>
<feColorMatrix in="SourceAlpha" type="matrix" values="0 0 0 0 0 0 0 0 0 0 0 0 0 0 0 0 0 0 127 0" result="hardAlpha"/>
<feOffset dx="10" dy="10"/>
<feGaussianBlur stdDeviation="12.5"/>
<feComposite in2="hardAlpha" operator="arithmetic" k2="-1" k3="1"/>
<feColorMatrix type="matrix" values="0 0 0 0 1 0 0 0 0 1 0 0 0 0 1 0 0 0 0.1 0"/>
<feBlend mode="normal" in2="shape" result="effect2_innerShadow_2387_17"/>
<feColorMatrix in="SourceAlpha" type="matrix" values="0 0 0 0 0 0 0 0 0 0 0 0 0 0 0 0 0 0 127 0" result="hardAlpha"/>
<feOffset dy="-10"/>
<feGaussianBlur stdDeviation="12.5"/>
<feComposite in2="hardAlpha" operator="arithmetic" k2="-1" k3="1"/>
<feColorMatrix type="matrix" values="0 0 0 0 0.137255 0 0 0 0 1 0 0 0 0 0.513726 0 0 0 0.513726 0"/>
<feBlend mode="normal" in2="effect2_innerShadow_2387_17" result="effect3_innerShadow_2387_17"/>
</filter>
<filter id="filter1_f_2387_17" x="0.823242" y="106.5" width="411.545" height="196" filterUnits="userSpaceOnUse" color-interpolation-filters="sRGB">
<feFlood flood-opacity="0" result="BackgroundImageFix"/>
<feBlend mode="normal" in="SourceGraphic" in2="BackgroundImageFix" result="shape"/>
<feGaussianBlur stdDeviation="37.5" result="effect1_foregroundBlur_2387_17"/>
</filter>
<linearGradient id="paint0_linear_2387_17" x1="206" y1="182" x2="206" y2="227" gradientUnits="userSpaceOnUse">
<stop stop-color="#AEFFB6"/>
<stop offset="1" stop-color="#23FF38"/>
</linearGradient>
<linearGradient id="paint1_linear_2387_17" x1="3061.56" y1="939.918" x2="978.158" y2="4213.43" gradientUnits="userSpaceOnUse">
<stop stop-color="#41873F"/>
<stop offset="0.3288" stop-color="#418B3D"/>
<stop offset="0.6352" stop-color="#419637"/>
<stop offset="0.9319" stop-color="#3FA92D"/>
<stop offset="1" stop-color="#3FAE2A"/>
</linearGradient>
<linearGradient id="paint2_linear_2387_17" x1="1958.4" y1="2766.81" x2="7175.95" y2="-67.8786" gradientUnits="userSpaceOnUse">
<stop offset="0.1376" stop-color="#41873F"/>
<stop offset="0.4032" stop-color="#54A044"/>
<stop offset="0.7136" stop-color="#66B848"/>
<stop offset="0.9081" stop-color="#6CC04A"/>
</linearGradient>
<linearGradient id="paint3_linear_2387_17" x1="-22.6092" y1="2517.92" x2="4375.45" y2="2517.92" gradientUnits="userSpaceOnUse">
<stop offset="0.0919165" stop-color="#6CC04A"/>
<stop offset="0.2864" stop-color="#66B848"/>
<stop offset="0.5968" stop-color="#54A044"/>
<stop offset="0.8624" stop-color="#41873F"/>
</linearGradient>
<linearGradient id="paint4_linear_2387_17" x1="-2051.77" y1="801.496" x2="2346.28" y2="801.496" gradientUnits="userSpaceOnUse">
<stop offset="0.0919165" stop-color="#6CC04A"/>
<stop offset="0.2864" stop-color="#66B848"/>
<stop offset="0.5968" stop-color="#54A044"/>
<stop offset="0.8624" stop-color="#41873F"/>
</linearGradient>
<linearGradient id="paint5_linear_2387_17" x1="2987.03" y1="-2702.77" x2="1872.83" y2="3135.62" gradientUnits="userSpaceOnUse">
<stop stop-color="#41873F"/>
<stop offset="0.3288" stop-color="#418B3D"/>
<stop offset="0.6352" stop-color="#419637"/>
<stop offset="0.9319" stop-color="#3FA92D"/>
<stop offset="1" stop-color="#3FAE2A"/>
</linearGradient>
</defs>
</svg>
