<svg width="410" height="313" viewBox="0 0 410 313" fill="none" xmlns="http://www.w3.org/2000/svg">
<g filter="url(#filter0_bii_2312_48)">
<rect x="55" width="300" height="250" rx="45" fill="#DADADA" fill-opacity="0.01"/>
</g>
<g clip-path="url(#clip0_2312_48)">
<path d="M246.708 103.178C245.313 102.682 243.907 102.223 242.491 101.8C242.729 100.792 242.948 99.7957 243.142 98.8171C246.335 82.7469 244.248 69.8005 237.12 65.5379C230.286 61.4515 219.11 65.7125 207.822 75.9004C206.71 76.9062 205.622 77.9411 204.56 79.0039C203.849 78.2972 203.126 77.6041 202.39 76.9251C190.56 66.032 178.703 61.4409 171.583 65.7157C164.755 69.8148 162.733 81.9854 165.607 97.2155C165.893 98.7239 166.215 100.224 166.575 101.716C164.896 102.21 163.277 102.737 161.727 103.297C147.857 108.312 139 116.172 139 124.324C139 132.743 148.509 141.188 162.954 146.309C164.126 146.723 165.307 147.106 166.496 147.458C166.11 149.064 165.767 150.681 165.467 152.308C162.728 167.273 164.867 179.156 171.677 183.229C178.71 187.436 190.514 183.113 202.008 172.692C202.94 171.845 203.851 170.974 204.741 170.08C205.891 171.231 207.072 172.348 208.282 173.431C219.416 183.366 230.412 187.379 237.215 183.294C244.241 179.076 246.525 166.31 243.56 150.779C243.326 149.562 243.065 148.352 242.775 147.148C243.604 146.893 244.417 146.631 245.21 146.358C260.228 141.198 269.999 132.856 269.999 124.324C269.999 116.142 260.856 108.23 246.708 103.178ZM243.45 140.85C242.734 141.095 241.999 141.333 241.25 141.564C239.592 136.12 237.355 130.332 234.617 124.352C237.23 118.514 239.381 112.8 240.992 107.392C242.332 107.794 243.633 108.219 244.886 108.666C257.009 112.994 264.403 119.393 264.403 124.324C264.403 129.576 256.417 136.393 243.45 140.85ZM238.07 151.906C239.381 158.774 239.568 164.983 238.7 169.837C237.92 174.199 236.351 177.107 234.411 178.272C230.283 180.75 221.454 177.529 211.932 169.031C210.807 168.025 209.708 166.986 208.638 165.916C212.33 161.729 216.019 156.862 219.619 151.456C225.952 150.874 231.935 149.921 237.361 148.62C237.622 149.709 237.859 150.805 238.07 151.906ZM183.661 177.843C179.627 179.32 176.415 179.363 174.473 178.202C170.341 175.73 168.623 166.189 170.966 153.39C171.244 151.878 171.563 150.374 171.922 148.88C177.288 150.111 183.228 150.996 189.575 151.53C193.2 156.82 196.996 161.681 200.821 165.939C200.008 166.754 199.176 167.549 198.325 168.323C193.242 172.93 188.149 176.199 183.661 177.843ZM164.765 140.817C158.377 138.553 153.102 135.61 149.486 132.399C146.237 129.513 144.597 126.648 144.597 124.324C144.597 119.377 151.708 113.066 163.569 108.778C165.008 108.258 166.515 107.767 168.078 107.306C169.718 112.836 171.868 118.618 174.463 124.465C171.834 130.398 169.653 136.272 167.998 141.868C166.912 141.545 165.834 141.195 164.765 140.817ZM171.099 96.1005C168.637 83.0521 170.272 73.2092 174.387 70.7388C178.769 68.1075 188.46 71.8591 198.674 81.2652C199.34 81.88 199.996 82.5072 200.64 83.1466C196.834 87.3853 193.073 92.211 189.48 97.4691C183.319 98.0614 177.422 99.0124 172 100.287C171.665 98.8995 171.365 97.5033 171.099 96.1005ZM227.606 110.572C226.326 108.277 224.997 106.012 223.623 103.777C227.802 104.325 231.807 105.053 235.568 105.942C234.439 109.695 233.031 113.619 231.375 117.642C230.164 115.259 228.908 112.902 227.606 110.572ZM204.563 87.2945C207.144 90.1948 209.729 93.4326 212.272 96.9459C207.114 96.6932 201.947 96.6922 196.789 96.9427C199.334 93.4618 201.941 90.2283 204.563 87.2945ZM181.371 110.611C180.086 112.923 178.853 115.266 177.673 117.637C176.044 113.628 174.649 109.687 173.511 105.881C177.248 105.014 181.234 104.305 185.387 103.766C183.997 106.015 182.658 108.298 181.371 110.611ZM185.506 145.294C181.216 144.797 177.17 144.125 173.433 143.281C174.59 139.407 176.015 135.381 177.68 131.287C178.864 133.66 180.102 136.004 181.393 138.317C182.721 140.694 184.095 143.023 185.506 145.294ZM204.717 161.762C202.064 158.794 199.419 155.51 196.835 151.979C199.344 152.081 201.901 152.133 204.5 152.133C207.17 152.133 209.809 152.071 212.407 151.951C209.856 155.546 207.281 158.834 204.717 161.762ZM231.428 131.078C233.179 135.217 234.655 139.222 235.826 143.029C232.028 143.928 227.928 144.652 223.607 145.19C224.991 142.913 226.332 140.609 227.628 138.277C228.946 135.907 230.213 133.507 231.428 131.078ZM222.781 135.377C220.796 138.952 218.701 142.459 216.496 145.893C212.504 146.186 208.502 146.332 204.5 146.33C200.423 146.33 196.458 146.198 192.639 145.941C190.377 142.516 188.242 139.002 186.236 135.409C184.24 131.835 182.376 128.183 180.647 124.462C182.372 120.74 184.23 117.087 186.22 113.51L186.219 113.511C188.208 109.933 190.326 106.435 192.571 103.023C196.467 102.718 200.462 102.559 204.499 102.559C208.555 102.559 212.556 102.719 216.45 103.027C218.672 106.433 220.778 109.919 222.762 113.479C224.758 117.048 226.642 120.684 228.41 124.38C226.66 128.114 224.782 131.782 222.781 135.377ZM234.325 70.5657C238.711 73.1895 240.418 83.7701 237.661 97.6453C237.485 98.5305 237.288 99.4322 237.073 100.347C231.638 99.0453 225.736 98.0779 219.557 97.4766C215.958 92.1605 212.228 87.3274 208.483 83.1434C209.465 82.1624 210.469 81.2068 211.496 80.2776C221.168 71.5491 230.207 68.1028 234.325 70.5657ZM204.5 112.192C210.96 112.192 216.198 117.624 216.198 124.324C216.198 131.024 210.96 136.456 204.5 136.456C198.039 136.456 192.802 131.024 192.802 124.324C192.802 117.624 198.039 112.192 204.5 112.192Z" fill="#00D8FF"/>
</g>
<g filter="url(#filter1_f_2312_48)">
<path d="M201.19 193C122.619 193 120.098 220.967 75 238H205H335C281.667 193 279.762 193 201.191 193H201.19Z" fill="url(#paint0_linear_2312_48)"/>
</g>
<defs>
<filter id="filter0_bii_2312_48" x="30" y="-25" width="350" height="300" filterUnits="userSpaceOnUse" color-interpolation-filters="sRGB">
<feFlood flood-opacity="0" result="BackgroundImageFix"/>
<feGaussianBlur in="BackgroundImageFix" stdDeviation="12.5"/>
<feComposite in2="SourceAlpha" operator="in" result="effect1_backgroundBlur_2312_48"/>
<feBlend mode="normal" in="SourceGraphic" in2="effect1_backgroundBlur_2312_48" result="shape"/>
<feColorMatrix in="SourceAlpha" type="matrix" values="0 0 0 0 0 0 0 0 0 0 0 0 0 0 0 0 0 0 127 0" result="hardAlpha"/>
<feOffset dx="10" dy="10"/>
<feGaussianBlur stdDeviation="12.5"/>
<feComposite in2="hardAlpha" operator="arithmetic" k2="-1" k3="1"/>
<feColorMatrix type="matrix" values="0 0 0 0 1 0 0 0 0 1 0 0 0 0 1 0 0 0 0.1 0"/>
<feBlend mode="normal" in2="shape" result="effect2_innerShadow_2312_48"/>
<feColorMatrix in="SourceAlpha" type="matrix" values="0 0 0 0 0 0 0 0 0 0 0 0 0 0 0 0 0 0 127 0" result="hardAlpha"/>
<feOffset dy="-10"/>
<feGaussianBlur stdDeviation="12.5"/>
<feComposite in2="hardAlpha" operator="arithmetic" k2="-1" k3="1"/>
<feColorMatrix type="matrix" values="0 0 0 0 0.0470588 0 0 0 0 0.52549 0 0 0 0 0.87451 0 0 0 0.25 0"/>
<feBlend mode="normal" in2="effect2_innerShadow_2312_48" result="effect3_innerShadow_2312_48"/>
</filter>
<filter id="filter1_f_2312_48" x="0" y="118" width="410" height="195" filterUnits="userSpaceOnUse" color-interpolation-filters="sRGB">
<feFlood flood-opacity="0" result="BackgroundImageFix"/>
<feBlend mode="normal" in="SourceGraphic" in2="BackgroundImageFix" result="shape"/>
<feGaussianBlur stdDeviation="37.5" result="effect1_foregroundBlur_2312_48"/>
</filter>
<linearGradient id="paint0_linear_2312_48" x1="205" y1="193" x2="205" y2="238" gradientUnits="userSpaceOnUse">
<stop stop-color="#5074FD"/>
<stop offset="1" stop-color="#00FFFE"/>
</linearGradient>
<clipPath id="clip0_2312_48">
<rect width="131" height="121" fill="white" transform="translate(139 64)"/>
</clipPath>
</defs>
</svg>
